<svg id="visual" viewBox="0 0 600 900" width="600" height="900" xmlns="http://www.w3.org/2000/svg" xmlns:xlink="http://www.w3.org/1999/xlink" version="1.1"><rect x="0" y="0" width="600" height="900" fill="#FFD400"></rect><path d="M0 635L50 619.7C100 604.3 200 573.7 300 561C400 548.3 500 553.7 550 556.3L600 559L600 901L550 901C500 901 400 901 300 901C200 901 100 901 50 901L0 901Z" fill="#ffd400"></path><path d="M0 704L50 703.3C100 702.7 200 701.3 300 718.8C400 736.3 500 772.7 550 790.8L600 809L600 901L550 901C500 901 400 901 300 901C200 901 100 901 50 901L0 901Z" fill="#7e691d"></path><path d="M0 833L50 817.8C100 802.7 200 772.3 300 768C400 763.7 500 785.3 550 796.2L600 807L600 901L550 901C500 901 400 901 300 901C200 901 100 901 50 901L0 901Z" fill="#0f0f0f"></path></svg>