<svg id="visual" viewBox="0 0 1366 679" width="1366" height="679" xmlns="http://www.w3.org/2000/svg" xmlns:xlink="http://www.w3.org/1999/xlink" version="1.1"><rect x="0" y="0" width="1366" height="679" fill="#FFD400"></rect><path d="M0 325L113.8 336.5C227.7 348 455.3 371 683 396.8C910.7 422.7 1138.3 451.3 1252.2 465.7L1366 480L1366 680L1252.2 680C1138.3 680 910.7 680 683 680C455.3 680 227.7 680 113.8 680L0 680Z" fill="#ffd400"></path><path d="M0 554L113.8 540.8C227.7 527.7 455.3 501.3 683 494C910.7 486.7 1138.3 498.3 1252.2 504.2L1366 510L1366 680L1252.2 680C1138.3 680 910.7 680 683 680C455.3 680 227.7 680 113.8 680L0 680Z" fill="#7e691d"></path><path d="M0 523L113.8 528.5C227.7 534 455.3 545 683 558C910.7 571 1138.3 586 1252.2 593.5L1366 601L1366 680L1252.2 680C1138.3 680 910.7 680 683 680C455.3 680 227.7 680 113.8 680L0 680Z" fill="#0f0f0f"></path></svg>